<svg version="1.1" id="Layer_1" xmlns="http://www.w3.org/2000/svg" x="0" y="0" viewBox="0 0 1200 120" style="enable-background:new 0 0 1200 120" xml:space="preserve"><style>.st0{fill:#fff}.st1{font-family:Open Sans;font-weight:800}.st2{font-size:33px}</style><path class="st0" d="M0 0h3.99v76H0zM39.87 0h3.99v38h-3.99zM79.73 0h3.99v38h-3.99zM119.6 0h3.99v38h-3.99zM159.47 0h3.99v38h-3.99zM199.34 0h3.99v76h-3.99zM239.2 0h3.99v38h-3.99zM279.07 0h3.99v38h-3.99zM318.94 0h3.99v38h-3.99zM358.8 0h3.99v38h-3.99zM398.67 0h3.99v76h-3.99zM438.54 0h3.99v38h-3.99zM478.41 0h3.99v38h-3.99zM518.27 0h3.99v38h-3.99zM558.14 0h3.99v38h-3.99zM598.01 0H602v76h-3.99zM637.87 0h3.99v38h-3.99zM677.74 0h3.99v38h-3.99zM717.61 0h3.99v38h-3.99zM757.48 0h3.99v38h-3.99zM797.34 0h3.99v76h-3.99zM837.21 0h3.99v38h-3.99zM877.08 0h3.99v38h-3.99zM916.94 0h3.99v38h-3.99zM956.81 0h3.99v38h-3.99zM996.68 0h3.99v76h-3.99zM1036.54 0h3.99v38h-3.99zM1076.41 0h3.99v38h-3.99zM1116.28 0h3.99v38h-3.99zM1156.15 0h3.99v38h-3.99zM1196.01 0h3.99v76h-3.99z"/><text transform="matrix(.9967 0 0 1 191.95 109.49)" class="st0 st1 st2">5</text><text transform="matrix(.9967 0 0 1 381.308 109.49)" class="st0 st1 st2">10</text><text transform="matrix(.9967 0 0 1 580.644 109.49)" class="st0 st1 st2">15</text><text transform="matrix(.9967 0 0 1 779.98 109.49)" class="st0 st1 st2">20</text><text transform="matrix(.9967 0 0 1 979.314 109.49)" class="st0 st1 st2">25</text><text transform="matrix(.9967 0 0 1 1161.697 109.49)" class="st0 st1 st2">30</text></svg>