<svg version="1.1" id="Layer_1" xmlns="http://www.w3.org/2000/svg" x="0" y="0" viewBox="0 0 1200 120" style="enable-background:new 0 0 1200 120" xml:space="preserve"><style>.st0{fill:#fff}.st1{font-family:Open Sans;font-weight:800}.st2{font-size:33px}</style><path class="st0" d="M-.01 0h3.97v76H-.01zM23.91 0h3.97v38h-3.97zM47.83 0h3.97v38h-3.97zM71.75 0h3.97v38h-3.97zM95.68 0h3.97v38h-3.97zM119.6 0h3.97v76h-3.97zM143.52 0h3.97v38h-3.97zM167.44 0h3.97v38h-3.97zM191.36 0h3.97v38h-3.97zM215.28 0h3.97v38h-3.97zM239.2 0h3.97v76h-3.97zM263.12 0h3.97v38h-3.97zM287.04 0h3.97v38h-3.97zM310.96 0h3.97v38h-3.97zM334.88 0h3.97v38h-3.97zM358.8 0h3.97v76h-3.97zM382.72 0h3.97v38h-3.97zM406.64 0h3.97v38h-3.97zM430.56 0h3.97v38h-3.97zM454.48 0h3.97v38h-3.97zM478.4 0h3.97v76h-3.97zM502.32 0h3.97v38h-3.97zM526.24 0h3.97v38h-3.97zM550.17 0h3.97v38h-3.97zM574.09 0h3.97v38h-3.97zM598.01 0h3.97v76h-3.97zM621.93 0h3.97v38h-3.97zM645.85 0h3.97v38h-3.97zM669.77 0h3.97v38h-3.97zM693.69 0h3.97v38h-3.97zM717.61 0h3.97v76h-3.97zM741.53 0h3.97v38h-3.97zM765.45 0h3.97v38h-3.97zM789.37 0h3.97v38h-3.97zM813.29 0h3.97v38h-3.97zM837.21 0h3.97v76h-3.97zM861.13 0h3.97v38h-3.97zM885.05 0h3.97v38h-3.97zM908.97 0h3.97v38h-3.97zM932.89 0h3.97v38h-3.97zM956.81 0h3.97v76h-3.97zM980.74 0h3.97v38h-3.97zM1004.66 0h3.97v38h-3.97zM1028.58 0h3.97v38h-3.97zM1052.5 0h3.97v38h-3.97zM1076.42 0h3.97v76h-3.97zM1100.34 0h3.97v38h-3.97zM1124.26 0h3.97v38h-3.97zM1148.18 0h3.97v38h-3.97zM1172.1 0h3.97v38h-3.97zM1196.02 0h3.97v76h-3.97z"/><text transform="matrix(.9934 0 0 1 102.3 107.49)" class="st0 st1 st2">10</text><text transform="matrix(.9934 0 0 1 222.021 107.49)" class="st0 st1 st2">20</text><text transform="matrix(.9934 0 0 1 341.697 107.49)" class="st0 st1 st2">30</text><text transform="matrix(.9934 0 0 1 461.373 107.49)" class="st0 st1 st2">40</text><text transform="matrix(.9934 0 0 1 581.048 107.49)" class="st0 st1 st2">50</text><text transform="matrix(.9934 0 0 1 700.817 107.49)" class="st0 st1 st2">60</text><text transform="matrix(.9934 0 0 1 820.048 107.878)" class="st0 st1 st2">70</text><text transform="matrix(.9934 0 0 1 940.048 107.878)" class="st0 st1 st2">80</text><text transform="matrix(.9934 0 0 1 1059.048 107.878)" class="st0 st1 st2">90</text><text transform="matrix(.9934 0 0 1 1142.048 107.878)" class="st0 st1 st2">100</text></svg>